<?xml version="1.0" standalone="no"?>
<!DOCTYPE svg PUBLIC "-//W3C//DTD SVG 20010904//EN"
 "http://www.w3.org/TR/2001/REC-SVG-20010904/DTD/svg10.dtd">
<svg version="1.0" xmlns="http://www.w3.org/2000/svg"
 width="769.000000pt" height="769.000000pt" viewBox="0 0 769.000000 769.000000"
 preserveAspectRatio="xMidYMid meet">
<metadata>
Created by potrace 1.14, written by Peter Selinger 2001-2017
</metadata>
<g transform="translate(0.000000,769.000000) scale(0.100000,-0.100000)"
fill="#000000" stroke="none">
<path d="M1165 5174 c-144 -29 -308 -115 -419 -219 -50 -49 -107 -126 -144
-200 -23 -45 -60 -99 -85 -122 -24 -24 -54 -65 -66 -92 -24 -50 -24 -50 -111
-63 -3 0 -24 -14 -47 -30 -64 -43 -95 -104 -101 -195 -5 -75 -3 -82 39 -164
11 -20 19 -41 19 -45 0 -5 -16 -27 -36 -49 -78 -88 -137 -194 -179 -325 -25
-75 -28 -100 -28 -215 0 -92 4 -145 16 -182 9 -29 13 -53 10 -53 -3 0 0 -7 7
-15 7 -8 10 -15 6 -15 -9 0 60 -136 100 -196 48 -72 157 -178 241 -236 79 -53
264 -145 293 -146 3 0 23 -7 45 -17 22 -9 47 -18 55 -20 8 -3 41 -11 73 -20
32 -9 120 -26 195 -39 117 -20 164 -23 322 -20 102 2 196 5 210 8 14 2 45 7
70 11 25 3 86 15 135 26 50 11 98 22 108 24 42 9 198 70 267 105 169 83 299
176 413 293 79 83 126 151 173 253 l35 75 62 -6 c34 -3 89 -8 122 -11 99 -10
109 -8 141 20 26 22 28 29 30 111 2 48 5 90 9 93 3 3 25 5 48 4 39 -2 159 18
199 33 13 5 8 -16 -24 -102 -43 -119 -42 -147 4 -177 36 -23 335 -43 370 -25
31 16 35 23 58 102 23 76 13 71 150 67 41 -1 78 -4 81 -8 4 -4 14 -34 24 -67
24 -84 33 -101 64 -115 16 -8 95 -14 211 -16 102 -3 255 -7 340 -9 180 -5 213
2 229 47 7 18 11 112 11 227 l0 196 37 89 38 88 5 -298 c3 -165 8 -306 13
-314 20 -40 42 -43 301 -41 137 1 270 6 295 12 25 6 54 12 64 14 10 2 41 15
69 27 l52 24 27 -31 27 -30 121 -1 c151 -1 237 9 260 30 10 9 29 53 41 96 l23
80 78 1 c44 1 91 1 106 2 26 1 29 -4 51 -77 22 -71 27 -79 59 -92 25 -11 56
-14 107 -10 39 3 107 8 150 12 43 3 88 9 100 14 12 4 32 4 44 -1 13 -5 27 -7
31 -5 3 2 47 7 96 10 201 14 236 24 251 69 4 12 8 96 9 187 l1 165 73 130 c40
72 111 192 157 268 88 146 92 156 81 200 -9 34 -48 53 -132 62 -33 4 -62 9
-65 10 -19 11 -170 16 -189 6 -22 -12 -57 -62 -99 -141 -14 -25 -28 -49 -32
-54 -5 -5 -34 41 -64 102 -31 62 -66 118 -79 126 -12 9 -47 18 -77 21 -30 4
-66 8 -80 11 -14 2 -68 6 -120 10 -75 5 -99 3 -114 -9 -18 -13 -23 -13 -46 4
-27 21 -42 23 -210 35 -133 9 -139 9 -169 -14 -24 -18 -32 -35 -107 -257 -19
-55 -37 -107 -40 -115 -3 -8 -19 21 -38 66 -71 178 -200 293 -381 340 -61 16
-116 18 -430 19 l-360 0 -22 -22 c-13 -13 -23 -25 -23 -28 0 -3 -22 -52 -48
-108 -27 -56 -51 -108 -54 -116 -2 -9 -11 1 -20 25 -47 114 -100 214 -120 225
-23 12 -121 13 -293 4 -60 -3 -86 -10 -107 -25 -16 -11 -28 -16 -28 -11 0 9
-55 32 -62 26 -1 -2 -55 -6 -118 -9 -167 -9 -192 -14 -216 -39 -12 -12 -41
-81 -64 -153 l-44 -130 -24 48 c-80 161 -252 228 -500 194 -23 -3 -59 -8 -79
-11 -250 -31 -273 -34 -284 -41 -6 -3 -33 -8 -61 -10 -28 -2 -78 -11 -111 -20
l-60 -15 -42 42 -43 43 20 50 c11 28 22 78 25 111 4 54 2 66 -29 125 -44 85
-95 122 -178 128 -40 3 -65 0 -75 -8 -13 -11 -22 -8 -53 21 -61 56 -146 142
-180 182 -69 81 -193 147 -362 192 -87 23 -328 29 -425 9z m3211 -1329 c73
-158 77 -169 78 -238 1 -37 -1 -64 -5 -60 -5 6 -139 396 -164 478 -6 22 34
-58 91 -180z m1185 159 c36 -32 52 -84 52 -169 1 -71 -2 -87 -26 -127 -15 -26
-37 -50 -50 -54 -31 -11 -77 -11 -84 -1 -4 7 -7 279 -4 361 1 16 7 18 46 13
25 -2 55 -13 66 -23z m-2366 -59 c0 -25 -5 -30 -31 -35 -29 -6 -30 -5 -26 19
7 46 11 52 34 49 18 -2 23 -10 23 -33z m3713 -331 l-3 -55 -69 188 c-38 103
-71 195 -73 203 -2 8 30 -52 72 -133 71 -139 76 -152 73 -203z"/>
</g>
</svg>
